<!--
  - Copyright 2023 gematik GmbH
  -
  - The Authenticator App is licensed under the European Union Public Licence (EUPL); every use of the Authenticator App
  - Sourcecode must be in compliance with the EUPL.
  -
  - You will find more details about the EUPL here: https://joinup.ec.europa.eu/collection/eupl
  -
  - Unless required by applicable law or agreed to in writing, software distributed under the EUPL is distributed on an "AS
  - IS" BASIS, WITHOUT WARRANTIES OR CONDITIONS OF ANY KIND, either express or implied. See the EUPL for the specific
  - language governing permissions and limitations under the License.ee the Licence for the specific language governing
  - permissions and limitations under the Licence.
  -->

<svg width="24" height="24" viewBox="0 0 24 24" fill="none" xmlns="http://www.w3.org/2000/svg">
<path fill-rule="evenodd" clip-rule="evenodd" d="M12 20C16.4183 20 20 16.4183 20 12C20 7.58172 16.4183 4 12 4C7.58172 4 4 7.58172 4 12C4 16.4183 7.58172 20 12 20ZM13 8C13 8.55229 12.5523 9 12 9C11.4477 9 11 8.55229 11 8C11 7.44772 11.4477 7 12 7C12.5523 7 13 7.44772 13 8ZM11 12C11 11.4477 11.4477 11 12 11C12.5523 11 13 11.4477 13 12V16C13 16.5523 12.5523 17 12 17C11.4477 17 11 16.5523 11 16V12Z" fill="#3E4784"/>
</svg>
