<!--
  - Copyright 2023 gematik GmbH
  -
  - The Authenticator App is licensed under the European Union Public Licence (EUPL); every use of the Authenticator App
  - Sourcecode must be in compliance with the EUPL.
  -
  - You will find more details about the EUPL here: https://joinup.ec.europa.eu/collection/eupl
  -
  - Unless required by applicable law or agreed to in writing, software distributed under the EUPL is distributed on an "AS
  - IS" BASIS, WITHOUT WARRANTIES OR CONDITIONS OF ANY KIND, either express or implied. See the EUPL for the specific
  - language governing permissions and limitations under the License.ee the Licence for the specific language governing
  - permissions and limitations under the Licence.
  -->

<svg width="131" height="24" viewBox="0 0 131 24" fill="none" xmlns="http://www.w3.org/2000/svg">
<path d="M122.008 10.8958H121.907V0.264309H119.211V18.7312H121.907V13.4033H121.985L127.353 18.7312H131L124.294 12.0296L130.949 6.06869H127.325L122.008 10.8958ZM112.299 18.7312H114.994V6.06869H112.299V18.7312ZM113.636 0C112.556 0 111.76 0.869439 111.76 1.95102C111.76 3.06043 112.556 3.8777 113.636 3.8777C114.717 3.8777 115.536 3.06043 115.536 1.95102C115.536 0.872917 114.713 0 113.636 0ZM104.309 8.57615H109.037V6.06869H104.309V2.27098H101.613V14.064C101.613 17.441 103.256 18.9955 106.033 18.9955C107.601 18.9955 108.834 18.4147 109.809 17.7296L108.756 15.5143C108.011 15.9907 107.113 16.3837 106.263 16.3837C105.183 16.3837 104.313 15.6986 104.313 14.0084V8.57615H104.309ZM92.5709 16.8323C90.5422 16.8323 89.875 15.9872 89.875 15.17C89.875 14.3527 90.4406 13.5876 92.2898 13.4033L95.6799 13.059V16.3837C94.9348 16.648 93.7766 16.8323 92.5709 16.8323ZM92.8283 5.80438C91.1586 5.80438 89.3332 6.17302 87.6127 7.28242L88.6152 9.52558C89.7193 8.8648 91.2873 8.25967 92.7267 8.25967C94.6029 8.25967 95.6799 8.99696 95.6799 10.6871V10.8993L92.6217 11.2158C89.2316 11.5601 87.1758 12.7981 87.1758 15.1456C87.1758 17.4688 88.7439 18.9955 92.6996 18.9955C94.7045 18.9955 97.0143 18.4947 98.3757 17.7539V10.5272C98.3757 7.41458 96.3471 5.8322 92.8283 5.80438ZM79.3153 5.80438C77.7743 5.80438 76.1283 6.28083 74.8956 7.07028C73.9202 6.22518 72.5316 5.80438 70.862 5.80438C68.8063 5.80438 66.5981 6.64947 65.4398 7.88755V18.7312H68.1357L68.1086 9.34125C69.084 8.54833 70.1135 8.39183 71.1126 8.39183C72.8094 8.39183 73.8084 9.42124 73.8084 11.2158V18.7312H76.5043V11.2123C76.5043 10.5272 76.4264 9.91856 76.274 9.3656C77.0461 8.78481 78.1231 8.38835 79.2272 8.38835C80.846 8.38835 81.923 9.25779 81.923 11.2123V18.7312H84.6189V11.2123C84.6324 7.62324 82.6038 5.80438 79.3153 5.80438ZM53.522 11.1323C53.8573 9.3656 55.09 8.20403 56.9392 8.20403C58.6596 8.20403 59.7637 9.23344 60.0719 11.1323H53.522ZM62.8219 12.1895C62.8219 8.31184 60.4343 5.80438 56.99 5.80438C53.3662 5.80438 50.6975 8.41617 50.6975 12.2939C50.6975 16.488 53.4712 18.9955 57.1729 18.9955C59.022 18.9955 60.7188 18.5191 62.2326 17.2288L60.8983 15.0378C59.8721 16.1194 58.5614 16.6202 57.3287 16.6202C55.5303 16.6202 53.6812 15.6986 53.4509 13.2155H62.7711C62.7948 12.9025 62.8219 12.5304 62.8219 12.1895ZM47.5613 7.88755C45.9696 6.22518 43.6057 5.80438 42.0647 5.80438C37.6213 5.80438 35 8.44399 35 12.426C35 16.2237 37.4926 18.7312 41.0622 18.7312C42.0884 18.7312 42.654 18.2304 42.654 17.3853C42.654 16.5924 42.0884 16.1437 41.0622 16.1437C39.0844 16.1437 37.6958 14.6935 37.6958 12.4225C37.6958 9.97073 39.2131 8.38487 41.9089 8.38487C42.7827 8.38487 44.0425 8.62136 44.7605 9.3343L44.7334 18.5677C44.7334 20.5188 43.013 21.416 40.8793 21.416C38.9286 21.416 37.6416 20.5188 37.3843 20.3866C36.331 19.858 35.3048 20.3588 35.3048 21.3882C35.3048 23.1306 38.3867 24 40.9064 24C44.6555 24 47.5613 22.3133 47.5613 18.5643V7.88755Z" fill="#000C45"/>
<path d="M10 7.49884C10 6.67041 10.6716 5.99884 11.5 5.99884H25.5C26.3284 5.99884 27 6.67041 27 7.49884C27 8.32727 26.3284 8.99884 25.5 8.99884H11.5C10.6716 8.99884 10 8.32727 10 7.49884Z" fill="black"/>
<path d="M3 12.5751C3 11.7467 3.67157 11.0751 4.5 11.0751H25.5C26.3284 11.0751 27 11.7467 27 12.5751C27 13.4036 26.3284 14.0751 25.5 14.0751H4.5C3.67157 14.0751 3 13.4036 3 12.5751Z" fill="#DD0B1A"/>
<path d="M0 17.5C0 16.6716 0.671573 16 1.5 16H25.5C26.3284 16 27 16.6716 27 17.5C27 18.3284 26.3284 19 25.5 19H1.5C0.671574 19 0 18.3284 0 17.5Z" fill="#FEC40E"/>
</svg>
